<?xml version="1.0" encoding="us-ascii" standalone="no"?><svg xmlns="http://www.w3.org/2000/svg" xmlns:xlink="http://www.w3.org/1999/xlink" contentStyleType="text/css" height="648px" preserveAspectRatio="none" style="width:851px;height:648px;background:#FFFFFF;" version="1.1" viewBox="0 0 851 648" width="851px" zoomAndPan="magnify"><defs/><g><!--cluster Password Manager--><g id="cluster_Password Manager"><rect fill="none" height="499" rx="7.5" ry="7.5" style="stroke:#181818;stroke-width:1.0;" width="289" x="199.5" y="7"/><text fill="#000000" font-family="sans-serif" font-size="14" font-weight="bold" lengthAdjust="spacing" textLength="134" x="277" y="23.5332">Password Manager</text></g><!--entity ui--><g id="elem_ui"><rect fill="#F1F1F1" height="37.6094" rx="7.5" ry="7.5" style="stroke:#181818;stroke-width:0.5;" width="108" x="231.5" y="175"/><text fill="#000000" font-family="sans-serif" font-size="14" lengthAdjust="spacing" textLength="88" x="241.5" y="199.5332">User Interface</text></g><!--entity engine--><g id="elem_engine"><rect fill="#F1F1F1" height="37.6094" rx="7.5" ry="7.5" style="stroke:#181818;stroke-width:0.5;" width="135" x="216" y="307"/><text fill="#000000" font-family="sans-serif" font-size="14" lengthAdjust="spacing" textLength="115" x="226" y="331.5332">Encryption Engine</text></g><!--entity dengine--><g id="elem_dengine"><rect fill="#F1F1F1" height="37.6094" rx="7.5" ry="7.5" style="stroke:#181818;stroke-width:0.5;" width="136" x="217.5" y="43"/><text fill="#000000" font-family="sans-serif" font-size="14" lengthAdjust="spacing" textLength="116" x="227.5" y="67.5332">Decryption Engine</text></g><!--entity keymanager--><g id="elem_keymanager"><rect fill="#F1F1F1" height="37.6094" rx="7.5" ry="7.5" style="stroke:#181818;stroke-width:0.5;" width="104" x="323.5" y="452"/><text fill="#000000" font-family="sans-serif" font-size="14" lengthAdjust="spacing" textLength="84" x="333.5" y="476.5332">Key Manager</text></g><!--entity user--><g id="elem_user"><rect fill="#F1F1F1" height="37.6094" rx="7.5" ry="7.5" style="stroke:#181818;stroke-width:0.5;" width="49" x="505" y="43"/><text fill="#000000" font-family="sans-serif" font-size="14" lengthAdjust="spacing" textLength="29" x="515" y="67.5332">User</text></g><!--entity db--><g id="elem_db"><path d="M49,449 C49,439 106.5,439 106.5,439 C106.5,439 164,439 164,449 L164,493.2188 C164,503.2188 106.5,503.2188 106.5,503.2188 C106.5,503.2188 49,503.2188 49,493.2188 L49,449 " fill="#F1F1F1" style="stroke:#181818;stroke-width:0.5;"/><path d="M49,449 C49,459 106.5,459 106.5,459 C106.5,459 164,459 164,449 " fill="none" style="stroke:#181818;stroke-width:0.5;"/><text fill="#000000" font-family="sans-serif" font-size="14" lengthAdjust="spacing" textLength="64" x="59" y="477.5332">Encrypted</text><text fill="#000000" font-family="sans-serif" font-size="14" lengthAdjust="spacing" textLength="95" x="59" y="495.1426">Password Files</text></g><!--entity usb--><g id="elem_usb"><rect fill="#F1F1F1" height="37.6094" rx="35" ry="35" style="stroke:#181818;stroke-width:0.5;" width="139" x="478" y="599.5"/><text fill="#000000" font-family="sans-serif" font-size="14" lengthAdjust="spacing" textLength="119" x="488" y="624.0332">External USB Drive</text></g><g id="elem_GMN18"><path d="M6,604.5 L6,632.2031 A7.5,7.5 0 0 0 13.5,639.7031 L199.5,639.7031 A7.5,7.5 0 0 0 207,632.2031 L207,607 L197,597 L110.5,597 L106.5,503.21 L102.5,597 L13.5,597 A7.5,7.5 0 0 0 6,604.5 " fill="#FEFFDD" style="stroke:#181818;stroke-width:0.5;"/><path d="M197,597 L197,603.25 A3.75,3.75 0 0 0 200.75,607 L207,607 L197,597 " fill="#FEFFDD" style="stroke:#181818;stroke-width:0.5;"/><text fill="#000000" font-family="sans-serif" font-size="13" lengthAdjust="spacing" textLength="157" x="12" y="615.4951">Each password is stored in</text><text fill="#000000" font-family="sans-serif" font-size="13" lengthAdjust="spacing" textLength="180" x="12" y="631.8467">a separate encrypted JSON file</text></g><g id="elem_GMN21"><path d="M652.5,604.5 L652.5,614.5 L617.03,618.5 L652.5,622.5 L652.5,632.2031 A7.5,7.5 0 0 0 660,639.7031 L835,639.7031 A7.5,7.5 0 0 0 842.5,632.2031 L842.5,607 L832.5,597 L660,597 A7.5,7.5 0 0 0 652.5,604.5 " fill="#FEFFDD" style="stroke:#181818;stroke-width:0.5;"/><path d="M832.5,597 L832.5,603.25 A3.75,3.75 0 0 0 836.25,607 L842.5,607 L832.5,597 " fill="#FEFFDD" style="stroke:#181818;stroke-width:0.5;"/><text fill="#000000" font-family="sans-serif" font-size="13" lengthAdjust="spacing" textLength="122" x="658.5" y="615.4951">USB key serves as a</text><text fill="#000000" font-family="sans-serif" font-size="13" lengthAdjust="spacing" textLength="169" x="658.5" y="631.8467">physical authentication factor</text></g><g id="elem_GMN24"><path d="M284,604.5 L284,632.2031 A7.5,7.5 0 0 0 291.5,639.7031 L435.5,639.7031 A7.5,7.5 0 0 0 443,632.2031 L443,607 L433,597 L369.21,597 L374,490.13 L361.21,597 L291.5,597 A7.5,7.5 0 0 0 284,604.5 " fill="#FEFFDD" style="stroke:#181818;stroke-width:0.5;"/><path d="M433,597 L433,603.25 A3.75,3.75 0 0 0 436.75,607 L443,607 L433,597 " fill="#FEFFDD" style="stroke:#181818;stroke-width:0.5;"/><text fill="#000000" font-family="sans-serif" font-size="13" lengthAdjust="spacing" textLength="125" x="290" y="615.4951">Supports configurable</text><text fill="#000000" font-family="sans-serif" font-size="13" lengthAdjust="spacing" textLength="138" x="290" y="631.8467">drive letters for flexibility</text></g><!--link user to ui--><g id="link_user_ui"><path codeLine="17" d="M499.5389,79.3263 C469.5089,95.6563 422.53,121.11 377.5,145 C358.72,154.96 343.0338,163.1729 325.8338,172.1129 " fill="none" id="user-ui" style="stroke:#666666;stroke-width:1.0;"/><polygon fill="#666666" points="504.81,76.46,494.9925,77.2455,500.4175,78.8486,498.8143,84.2736,504.81,76.46" style="stroke:#666666;stroke-width:1.0;"/><polygon fill="#666666" points="320.51,174.88,330.3405,174.2785,324.9465,172.574,326.651,167.1801,320.51,174.88" style="stroke:#666666;stroke-width:1.0;"/><text fill="#000000" font-family="sans-serif" font-size="13" lengthAdjust="spacing" textLength="102" x="440.5" y="125.4951">Inputs credentials</text><text fill="#000000" font-family="sans-serif" font-size="13" lengthAdjust="spacing" textLength="89" x="447" y="141.8467">and commands</text></g><!--link ui to engine--><g id="link_ui_engine"><path codeLine="18" d="M266.27,213.25 C258.9,221.54 251.34,231.96 247.5,243 C242.53,257.27 242.72,262.66 247.5,277 C251.12,287.87 254.4237,293.6634 261.4037,301.9834 " fill="none" id="ui-to-engine" style="stroke:#666666;stroke-width:1.0;"/><polygon fill="#666666" points="265.26,306.58,262.54,297.1142,262.0464,302.7495,256.4111,302.2559,265.26,306.58" style="stroke:#666666;stroke-width:1.0;"/><text fill="#000000" font-family="sans-serif" font-size="13" lengthAdjust="spacing" textLength="86" x="248.5" y="265.4951">Password data</text></g><!--link engine to db--><g id="link_engine_db"><path codeLine="19" d="M220.62,345.03 C202.19,352.33 182.89,362.14 167.5,375 C146.9,392.22 133.5992,412.8766 123.1592,433.3166 " fill="none" id="engine-to-db" style="stroke:#666666;stroke-width:1.0;"/><polygon fill="#666666" points="120.43,438.66,128.086,432.4644,122.7043,434.2072,120.9615,428.8255,120.43,438.66" style="stroke:#666666;stroke-width:1.0;"/><text fill="#000000" font-family="sans-serif" font-size="13" lengthAdjust="spacing" textLength="99" x="168.5" y="389.4951">Writes encrypted</text><text fill="#000000" font-family="sans-serif" font-size="13" lengthAdjust="spacing" textLength="82" x="177" y="405.8467">password files</text></g><!--link db to dengine--><g id="link_db_dengine"><path codeLine="20" d="M105.09,438.82 C104.22,393.68 107.01,308.38 135.5,243 C165.48,174.2 225.6659,115.0454 259.4559,85.1554 " fill="none" id="db-to-dengine" style="stroke:#666666;stroke-width:1.0;"/><polygon fill="#666666" points="263.95,81.18,254.5587,84.147,260.205,84.4928,259.8592,90.1391,263.95,81.18" style="stroke:#666666;stroke-width:1.0;"/><text fill="#000000" font-family="sans-serif" font-size="13" lengthAdjust="spacing" textLength="98" x="136.5" y="257.4951">Reads encrypted</text><text fill="#000000" font-family="sans-serif" font-size="13" lengthAdjust="spacing" textLength="82" x="144.5" y="273.8467">password files</text></g><!--link dengine to ui--><g id="link_dengine_ui"><path codeLine="21" d="M284.56,81.23 C284.15,90.19 283.7,101.16 283.5,111 C283.19,126.11 283.19,129.89 283.5,145 C283.7,154.84 283.8757,159.8163 284.2857,168.7763 " fill="none" id="dengine-to-ui" style="stroke:#666666;stroke-width:1.0;"/><polygon fill="#666666" points="284.56,174.77,288.1444,165.5966,284.3314,169.7752,280.1528,165.9623,284.56,174.77" style="stroke:#666666;stroke-width:1.0;"/><text fill="#000000" font-family="sans-serif" font-size="13" lengthAdjust="spacing" textLength="59" x="297" y="125.4951">Decrypted</text><text fill="#000000" font-family="sans-serif" font-size="13" lengthAdjust="spacing" textLength="84" x="284.5" y="141.8467">password data</text></g><!--link keymanager to usb--><g id="link_keymanager_usb"><path codeLine="22" d="M401.5207,494.0052 C434.5707,521.9652 488.4399,567.5341 521.4799,595.4941 " fill="none" id="keymanager-usb" style="stroke:#666666;stroke-width:1.0;"/><polygon fill="#666666" points="396.94,490.13,401.2275,498.9966,400.7572,493.3593,406.3945,492.889,396.94,490.13" style="stroke:#666666;stroke-width:1.0;"/><polygon fill="#666666" points="526.06,599.37,521.7738,590.5027,522.2432,596.1401,516.6059,596.6096,526.06,599.37" style="stroke:#666666;stroke-width:1.0;"/><text fill="#000000" font-family="sans-serif" font-size="13" lengthAdjust="spacing" textLength="90" x="487.5" y="547.4951">Stores/retrieves</text><text fill="#000000" font-family="sans-serif" font-size="13" lengthAdjust="spacing" textLength="72" x="496.5" y="563.8467">master keys</text></g><!--reverse link engine to keymanager--><g id="link_engine_keymanager"><path codeLine="23" d="M278.039,351.0518 C274.839,368.5218 273.79,389.22 284.5,409 C294.73,427.9 313.66,442 331.62,451.86 " fill="none" id="engine-backto-keymanager" style="stroke:#666666;stroke-width:1.0;"/><polygon fill="#666666" points="279.12,345.15,273.5639,353.282,278.2191,350.0682,281.433,354.7234,279.12,345.15" style="stroke:#666666;stroke-width:1.0;"/><text fill="#000000" font-family="sans-serif" font-size="13" lengthAdjust="spacing" textLength="49" x="307" y="389.4951">Provides</text><text fill="#000000" font-family="sans-serif" font-size="13" lengthAdjust="spacing" textLength="92" x="285.5" y="405.8467">encryption keys</text></g><!--reverse link dengine to keymanager--><g id="link_dengine_keymanager"><path codeLine="24" d="M344.3656,83.8607 C357.8456,91.0407 365.46,97.97 373.5,111 C388.91,135.98 382,345.65 382.5,375 C382.76,390.11 383.36,393.91 382.5,409 C381.67,423.47 379.75,439.78 378.13,451.9 " fill="none" id="dengine-backto-keymanager" style="stroke:#666666;stroke-width:1.0;"/><polygon fill="#666666" points="339.07,81.04,345.133,88.8014,343.483,83.3906,348.8939,81.7406,339.07,81.04" style="stroke:#666666;stroke-width:1.0;"/><text fill="#000000" font-family="sans-serif" font-size="13" lengthAdjust="spacing" textLength="49" x="406" y="257.4951">Provides</text><text fill="#000000" font-family="sans-serif" font-size="13" lengthAdjust="spacing" textLength="92" x="384.5" y="273.8467">decryption keys</text></g><!--SRC=[XLDDZzD03BtFhx3AUOKum04X9DZjIWlYGrGhBdjnCauwseadyapQHeZ_ZfrsqnIj8AT9vldvlMS7OqpxBXm2jyxbny0z2dOWQM1_dOH9uDNhnSK7aRI_JZ49l7WpFOlBEdLzOkAoAMCa4AeBSXl9EMprAwpkCyaACCEW1pV3OVKTSzudyV05MR4A-kK05W2hX3ik90tMTEG8bv0rrpBs9II6DRU1ZoYQZfV86teEwP-3VgRnh4b1ZpHsnrVtstaiM66ckJVv1vwjt8P8-SXSkLoIQ9KY3-g1CSBzvYFSIDYTpEJAEKi5tbrTlLTly5RjzaF9K0kfj18mvWT6zYPFDVZi56NWesujc5kRC7VwR0XVwUrF2OKia5bg_uHlJAfJr0IU-NuG-dyMB5fCYa_1Na0dBUVOJlwoATfeA9HV2XK9j2Errs7MU2pb_AHVyOlKpQMaNV26flF4fmh__n9FboMEKo6eKYcfWzJOg03MM6zXDX0osFH8JmnwYv39zbthvcZWq-RRroaLbUt1I4_K4jfjCMQRC4nJryPA8MhO9e_6sM_776hT2XpArePTuwHHbrrR_yrvbhjOHu3DqFT9R6CIDw4T12lz2_N2svf1fABPPcZqtsqY7K8LOYZZJFu7]--></g></svg>